<?xml version="1.0" standalone="no"?>
<!DOCTYPE svg PUBLIC "-//W3C//DTD SVG 20010904//EN"
 "http://www.w3.org/TR/2001/REC-SVG-20010904/DTD/svg10.dtd">
<svg version="1.0" xmlns="http://www.w3.org/2000/svg"
 width="109.000000pt" height="109.000000pt" viewBox="0 0 109.000000 109.000000"
 preserveAspectRatio="xMidYMid meet">

<g transform="translate(0.000000,109.000000) scale(0.100000,-0.100000)"
fill="#000000" stroke="none">
<path d="M415 1066 c-191 -49 -340 -197 -391 -391 -18 -67 -17 -197 1 -270 47
-179 201 -333 380 -380 77 -20 216 -19 286 1 182 53 327 201 374 379 31 119
15 277 -39 383 -59 116 -176 218 -301 264 -74 26 -234 34 -310 14z m278 -88
c71 -23 125 -56 177 -108 266 -266 119 -716 -254 -781 -169 -29 -355 51 -450
195 -96 144 -107 307 -30 464 101 207 335 304 557 230z"/>
<path d="M426 663 c-109 -98 -127 -130 -73 -126 l27 2 0 -104 c0 -112 2 -115
60 -115 56 0 60 6 60 91 l0 79 50 0 50 0 0 -79 c0 -87 3 -91 69 -91 55 0 61
11 61 124 0 54 3 96 7 93 8 -9 33 12 33 28 0 15 -207 195 -224 195 -7 0 -61
-44 -120 -97z"/>
</g>
</svg>
